<mxfile host="65bd71144e">
    <diagram id="zyYmefie_z_X44gp6lVI" name="Page-1">
        <mxGraphModel dx="2033" dy="1075" grid="1" gridSize="10" guides="1" tooltips="1" connect="1" arrows="1" fold="1" page="1" pageScale="1" pageWidth="850" pageHeight="1100" math="0" shadow="0">
            <root>
                <mxCell id="0"/>
                <mxCell id="1" parent="0"/>
                <mxCell id="30" value="" style="edgeStyle=entityRelationEdgeStyle;startArrow=none;endArrow=none;segment=10;curved=1;sourcePerimeterSpacing=0;targetPerimeterSpacing=0;snapToPoint=1;fixDash=0;metaEdit=0;comic=0;enumerate=0;" edge="1" parent="1" source="33" target="34">
                    <mxGeometry relative="1" as="geometry"/>
                </mxCell>
                <mxCell id="31" value="" style="edgeStyle=entityRelationEdgeStyle;startArrow=none;endArrow=none;segment=10;curved=1;sourcePerimeterSpacing=0;targetPerimeterSpacing=0;snapToPoint=1;fixDash=0;metaEdit=0;comic=0;enumerate=0;" edge="1" parent="1" source="33" target="35">
                    <mxGeometry relative="1" as="geometry"/>
                </mxCell>
                <mxCell id="32" value="" style="edgeStyle=entityRelationEdgeStyle;startArrow=none;endArrow=none;segment=10;curved=1;sourcePerimeterSpacing=0;targetPerimeterSpacing=0;snapToPoint=1;fixDash=0;metaEdit=0;comic=0;enumerate=0;flowAnimation=1;" edge="1" parent="1" source="33" target="36">
                    <mxGeometry relative="1" as="geometry"/>
                </mxCell>
                <mxCell id="33" value="&lt;h1&gt;&lt;font style=&quot;font-size: 18px;&quot;&gt;Store API&lt;/font&gt;&lt;/h1&gt;" style="ellipse;whiteSpace=wrap;html=1;align=center;treeFolding=1;treeMoving=1;newEdgeStyle={&quot;edgeStyle&quot;:&quot;entityRelationEdgeStyle&quot;,&quot;startArrow&quot;:&quot;none&quot;,&quot;endArrow&quot;:&quot;none&quot;,&quot;segment&quot;:10,&quot;curved&quot;:1,&quot;sourcePerimeterSpacing&quot;:0,&quot;targetPerimeterSpacing&quot;:0};comic=0;shadow=0;fillColor=default;fillStyle=auto;gradientColor=none;fontStyle=4;labelBackgroundColor=none;snapToPoint=1;fixDash=0;metaEdit=0;enumerate=0;" vertex="1" parent="1">
                    <mxGeometry x="395" y="415" width="130" height="80" as="geometry"/>
                </mxCell>
                <mxCell id="37" value="" style="edgeStyle=entityRelationEdgeStyle;startArrow=none;endArrow=none;segment=10;curved=1;sourcePerimeterSpacing=0;targetPerimeterSpacing=0;snapToPoint=1;fixDash=0;metaEdit=0;comic=0;enumerate=0;flowAnimation=1;" edge="1" parent="1" source="33" target="38">
                    <mxGeometry relative="1" as="geometry">
                        <mxPoint x="320" y="695" as="sourcePoint"/>
                    </mxGeometry>
                </mxCell>
                <mxCell id="39" value="" style="edgeStyle=entityRelationEdgeStyle;startArrow=none;endArrow=none;segment=10;curved=1;sourcePerimeterSpacing=0;targetPerimeterSpacing=0;snapToPoint=1;fixDash=0;metaEdit=0;comic=0;enumerate=0;flowAnimation=1;" edge="1" parent="1" source="33" target="40">
                    <mxGeometry relative="1" as="geometry">
                        <mxPoint x="320" y="695" as="sourcePoint"/>
                    </mxGeometry>
                </mxCell>
                <mxCell id="41" value="" style="edgeStyle=entityRelationEdgeStyle;startArrow=none;endArrow=none;segment=10;curved=1;sourcePerimeterSpacing=0;targetPerimeterSpacing=0;snapToPoint=1;fixDash=0;metaEdit=0;comic=0;enumerate=0;flowAnimation=1;" edge="1" parent="1" source="33" target="42">
                    <mxGeometry relative="1" as="geometry">
                        <mxPoint x="320" y="695" as="sourcePoint"/>
                    </mxGeometry>
                </mxCell>
                <mxCell id="43" value="" style="edgeStyle=entityRelationEdgeStyle;startArrow=none;endArrow=none;segment=10;curved=1;sourcePerimeterSpacing=0;targetPerimeterSpacing=0;snapToPoint=1;fixDash=0;metaEdit=0;comic=0;enumerate=0;flowAnimation=1;" edge="1" parent="1" source="33" target="44">
                    <mxGeometry relative="1" as="geometry">
                        <mxPoint x="320" y="695" as="sourcePoint"/>
                    </mxGeometry>
                </mxCell>
                <mxCell id="45" value="" style="edgeStyle=entityRelationEdgeStyle;startArrow=none;endArrow=none;segment=10;curved=1;sourcePerimeterSpacing=0;targetPerimeterSpacing=0;snapToPoint=1;fixDash=0;metaEdit=0;comic=0;enumerate=0;flowAnimation=1;" edge="1" parent="1" source="33" target="46">
                    <mxGeometry relative="1" as="geometry">
                        <mxPoint x="320" y="695" as="sourcePoint"/>
                    </mxGeometry>
                </mxCell>
                <mxCell id="47" value="" style="edgeStyle=entityRelationEdgeStyle;startArrow=none;endArrow=none;segment=10;sourcePerimeterSpacing=0;targetPerimeterSpacing=0;snapToPoint=1;fixDash=0;metaEdit=0;comic=0;enumerate=0;curved=1;orthogonalLoop=0;flowAnimation=1;" edge="1" parent="1" source="33" target="48">
                    <mxGeometry relative="1" as="geometry">
                        <mxPoint x="320" y="695" as="sourcePoint"/>
                    </mxGeometry>
                </mxCell>
                <mxCell id="49" value="" style="edgeStyle=entityRelationEdgeStyle;startArrow=none;endArrow=none;segment=10;curved=1;sourcePerimeterSpacing=0;targetPerimeterSpacing=0;snapToPoint=1;fixDash=0;metaEdit=0;comic=0;enumerate=0;flowAnimation=1;" edge="1" parent="1" source="33" target="50">
                    <mxGeometry relative="1" as="geometry">
                        <mxPoint x="320" y="695" as="sourcePoint"/>
                    </mxGeometry>
                </mxCell>
                <mxCell id="51" value="" style="edgeStyle=entityRelationEdgeStyle;startArrow=none;endArrow=none;segment=10;curved=1;sourcePerimeterSpacing=0;targetPerimeterSpacing=0;snapToPoint=1;fixDash=0;metaEdit=0;comic=0;enumerate=0;flowAnimation=1;" edge="1" parent="1" source="33" target="52">
                    <mxGeometry relative="1" as="geometry">
                        <mxPoint x="425.0000000000001" y="555" as="sourcePoint"/>
                    </mxGeometry>
                </mxCell>
                <mxCell id="55" value="" style="group" vertex="1" connectable="0" parent="1">
                    <mxGeometry x="315" y="625" width="135" height="309" as="geometry"/>
                </mxCell>
                <mxCell id="35" value="User facing /endpoints" style="whiteSpace=wrap;html=1;rounded=1;arcSize=25;align=center;verticalAlign=middle;strokeWidth=1;autosize=1;spacing=4;treeFolding=1;treeMoving=1;newEdgeStyle={&quot;edgeStyle&quot;:&quot;entityRelationEdgeStyle&quot;,&quot;startArrow&quot;:&quot;none&quot;,&quot;endArrow&quot;:&quot;none&quot;,&quot;segment&quot;:10,&quot;curved&quot;:1,&quot;sourcePerimeterSpacing&quot;:0,&quot;targetPerimeterSpacing&quot;:0};snapToPoint=1;fixDash=0;metaEdit=0;comic=0;enumerate=0;" vertex="1" parent="55">
                    <mxGeometry x="-25" width="160" height="30" as="geometry"/>
                </mxCell>
                <mxCell id="36" value="&lt;pre&gt;Home&lt;/pre&gt;" style="whiteSpace=wrap;html=1;shape=partialRectangle;top=0;left=0;bottom=1;right=0;points=[[0,1],[1,1]];fillColor=none;align=center;verticalAlign=bottom;routingCenterY=0.5;snapToPoint=1;autosize=1;treeFolding=1;treeMoving=1;newEdgeStyle={&quot;edgeStyle&quot;:&quot;entityRelationEdgeStyle&quot;,&quot;startArrow&quot;:&quot;none&quot;,&quot;endArrow&quot;:&quot;none&quot;,&quot;segment&quot;:10,&quot;curved&quot;:1,&quot;sourcePerimeterSpacing&quot;:0,&quot;targetPerimeterSpacing&quot;:0};fixDash=0;metaEdit=0;comic=0;enumerate=0;" vertex="1" parent="55">
                    <mxGeometry x="20" y="39" width="70" height="50" as="geometry"/>
                </mxCell>
                <mxCell id="38" value="&lt;pre&gt;Products&lt;/pre&gt;" style="whiteSpace=wrap;html=1;shape=partialRectangle;top=0;left=0;bottom=1;right=0;points=[[0,1],[1,1]];fillColor=none;align=center;verticalAlign=bottom;routingCenterY=0.5;snapToPoint=1;autosize=1;treeFolding=1;treeMoving=1;newEdgeStyle={&quot;edgeStyle&quot;:&quot;entityRelationEdgeStyle&quot;,&quot;startArrow&quot;:&quot;none&quot;,&quot;endArrow&quot;:&quot;none&quot;,&quot;segment&quot;:10,&quot;curved&quot;:1,&quot;sourcePerimeterSpacing&quot;:0,&quot;targetPerimeterSpacing&quot;:0};fixDash=0;metaEdit=0;comic=0;enumerate=0;" vertex="1" parent="55">
                    <mxGeometry x="5" y="83" width="100" height="50" as="geometry"/>
                </mxCell>
                <mxCell id="42" value="&lt;pre&gt;Cart&lt;/pre&gt;" style="whiteSpace=wrap;html=1;shape=partialRectangle;top=0;left=0;bottom=1;right=0;points=[[0,1],[1,1]];fillColor=none;align=center;verticalAlign=bottom;routingCenterY=0.5;snapToPoint=1;autosize=1;treeFolding=1;treeMoving=1;newEdgeStyle={&quot;edgeStyle&quot;:&quot;entityRelationEdgeStyle&quot;,&quot;startArrow&quot;:&quot;none&quot;,&quot;endArrow&quot;:&quot;none&quot;,&quot;segment&quot;:10,&quot;curved&quot;:1,&quot;sourcePerimeterSpacing&quot;:0,&quot;targetPerimeterSpacing&quot;:0};fixDash=0;metaEdit=0;comic=0;enumerate=0;" vertex="1" parent="55">
                    <mxGeometry x="20" y="127" width="70" height="50" as="geometry"/>
                </mxCell>
                <mxCell id="44" value="&lt;pre&gt;Orders&lt;/pre&gt;" style="whiteSpace=wrap;html=1;shape=partialRectangle;top=0;left=0;bottom=1;right=0;points=[[0,1],[1,1]];fillColor=none;align=center;verticalAlign=bottom;routingCenterY=0.5;snapToPoint=1;autosize=1;treeFolding=1;treeMoving=1;newEdgeStyle={&quot;edgeStyle&quot;:&quot;entityRelationEdgeStyle&quot;,&quot;startArrow&quot;:&quot;none&quot;,&quot;endArrow&quot;:&quot;none&quot;,&quot;segment&quot;:10,&quot;curved&quot;:1,&quot;sourcePerimeterSpacing&quot;:0,&quot;targetPerimeterSpacing&quot;:0};fixDash=0;metaEdit=0;comic=0;enumerate=0;" vertex="1" parent="55">
                    <mxGeometry x="15" y="171" width="80" height="50" as="geometry"/>
                </mxCell>
                <mxCell id="46" value="&lt;pre&gt;Payment&lt;/pre&gt;" style="whiteSpace=wrap;html=1;shape=partialRectangle;top=0;left=0;bottom=1;right=0;points=[[0,1],[1,1]];fillColor=none;align=center;verticalAlign=bottom;routingCenterY=0.5;snapToPoint=1;autosize=1;treeFolding=1;treeMoving=1;newEdgeStyle={&quot;edgeStyle&quot;:&quot;entityRelationEdgeStyle&quot;,&quot;startArrow&quot;:&quot;none&quot;,&quot;endArrow&quot;:&quot;none&quot;,&quot;segment&quot;:10,&quot;curved&quot;:1,&quot;sourcePerimeterSpacing&quot;:0,&quot;targetPerimeterSpacing&quot;:0};fixDash=0;metaEdit=0;comic=0;enumerate=0;" vertex="1" parent="55">
                    <mxGeometry x="10" y="215" width="90" height="50" as="geometry"/>
                </mxCell>
                <mxCell id="50" value="&lt;pre&gt;Account&lt;/pre&gt;" style="whiteSpace=wrap;html=1;shape=partialRectangle;top=0;left=0;bottom=1;right=0;points=[[0,1],[1,1]];fillColor=none;align=center;verticalAlign=bottom;routingCenterY=0.5;snapToPoint=1;autosize=1;treeFolding=1;treeMoving=1;newEdgeStyle={&quot;edgeStyle&quot;:&quot;entityRelationEdgeStyle&quot;,&quot;startArrow&quot;:&quot;none&quot;,&quot;endArrow&quot;:&quot;none&quot;,&quot;segment&quot;:10,&quot;curved&quot;:1,&quot;sourcePerimeterSpacing&quot;:0,&quot;targetPerimeterSpacing&quot;:0};comic=0;shadow=0;fixDash=0;metaEdit=0;enumerate=0;" vertex="1" parent="55">
                    <mxGeometry x="10" y="259" width="90" height="50" as="geometry"/>
                </mxCell>
                <mxCell id="56" value="" style="group" vertex="1" connectable="0" parent="1">
                    <mxGeometry x="315" y="165" width="140" height="160" as="geometry"/>
                </mxCell>
                <mxCell id="34" value="Admin facing /endpoints" style="whiteSpace=wrap;html=1;rounded=1;arcSize=25;align=center;verticalAlign=middle;strokeWidth=1;autosize=1;spacing=4;treeFolding=1;treeMoving=1;newEdgeStyle={&quot;edgeStyle&quot;:&quot;entityRelationEdgeStyle&quot;,&quot;startArrow&quot;:&quot;none&quot;,&quot;endArrow&quot;:&quot;none&quot;,&quot;segment&quot;:10,&quot;curved&quot;:1,&quot;sourcePerimeterSpacing&quot;:0,&quot;targetPerimeterSpacing&quot;:0};snapToPoint=1;fixDash=0;metaEdit=0;comic=0;enumerate=0;" vertex="1" parent="56">
                    <mxGeometry x="-30" width="170" height="30" as="geometry"/>
                </mxCell>
                <mxCell id="40" value="&lt;pre&gt;Inventory&lt;/pre&gt;" style="whiteSpace=wrap;html=1;shape=partialRectangle;top=0;left=0;bottom=1;right=0;points=[[0,1],[1,1]];fillColor=none;align=center;verticalAlign=bottom;routingCenterY=0.5;snapToPoint=1;autosize=1;treeFolding=1;treeMoving=1;newEdgeStyle={&quot;edgeStyle&quot;:&quot;entityRelationEdgeStyle&quot;,&quot;startArrow&quot;:&quot;none&quot;,&quot;endArrow&quot;:&quot;none&quot;,&quot;segment&quot;:10,&quot;curved&quot;:1,&quot;sourcePerimeterSpacing&quot;:0,&quot;targetPerimeterSpacing&quot;:0};fixDash=0;metaEdit=0;comic=0;enumerate=0;" vertex="1" parent="56">
                    <mxGeometry y="70" width="110" height="50" as="geometry"/>
                </mxCell>
                <mxCell id="48" value="&lt;pre&gt;Admin&lt;/pre&gt;" style="whiteSpace=wrap;html=1;shape=partialRectangle;top=0;left=0;bottom=1;right=0;points=[[0,1],[1,1]];fillColor=none;align=center;verticalAlign=bottom;routingCenterY=0.5;snapToPoint=1;autosize=1;treeFolding=1;treeMoving=1;newEdgeStyle={&quot;edgeStyle&quot;:&quot;entityRelationEdgeStyle&quot;,&quot;startArrow&quot;:&quot;none&quot;,&quot;endArrow&quot;:&quot;none&quot;,&quot;segment&quot;:10,&quot;curved&quot;:1,&quot;sourcePerimeterSpacing&quot;:0,&quot;targetPerimeterSpacing&quot;:0};fixDash=0;metaEdit=0;comic=0;enumerate=0;" vertex="1" parent="56">
                    <mxGeometry x="15" y="30" width="80" height="50" as="geometry"/>
                </mxCell>
                <mxCell id="52" value="&lt;pre&gt;Users&lt;/pre&gt;" style="whiteSpace=wrap;html=1;shape=partialRectangle;top=0;left=0;bottom=1;right=0;points=[[0,1],[1,1]];fillColor=none;align=center;verticalAlign=bottom;routingCenterY=0.5;snapToPoint=1;autosize=1;treeFolding=1;treeMoving=1;newEdgeStyle={&quot;edgeStyle&quot;:&quot;entityRelationEdgeStyle&quot;,&quot;startArrow&quot;:&quot;none&quot;,&quot;endArrow&quot;:&quot;none&quot;,&quot;segment&quot;:10,&quot;curved&quot;:1,&quot;sourcePerimeterSpacing&quot;:0,&quot;targetPerimeterSpacing&quot;:0};fixDash=0;metaEdit=0;comic=0;enumerate=0;" vertex="1" parent="56">
                    <mxGeometry x="15" y="110" width="80" height="50" as="geometry"/>
                </mxCell>
            </root>
        </mxGraphModel>
    </diagram>
</mxfile>